<?xml version="1.0" encoding="utf-8"?>
<!-- Generator: Adobe Illustrator 16.0.0, SVG Export Plug-In . SVG Version: 6.00 Build 0)  -->
<!DOCTYPE svg PUBLIC "-//W3C//DTD SVG 1.1//EN" "http://www.w3.org/Graphics/SVG/1.1/DTD/svg11.dtd">
<svg version="1.1" id="Layer_1" xmlns="http://www.w3.org/2000/svg" xmlns:xlink="http://www.w3.org/1999/xlink" x="0px" y="0px"
	 width="1350px" height="432px" viewBox="0 0 1350 432" enable-background="new 0 0 1350 432" xml:space="preserve">
<g>
	<g>
		<polygon fill="#FFFFFF" points="623.265,250.361 623.265,173.658 598.4,173.658 598.4,163.757 658.523,163.757 658.523,173.658 
			633.66,173.658 633.66,250.361 		"/>
		<path fill="#FFFFFF" d="M587.25,175.516l-7.175,6.8c-0.256-0.256-0.579-0.597-0.988-1.057c-0.409-0.461-1.363-1.278-2.846-2.472
			c-1.483-1.192-3.067-2.232-4.772-3.084c-1.687-0.869-3.919-1.671-6.68-2.42c-2.761-0.75-5.624-1.108-8.606-1.108
			c-9.151,0-16.718,3.443-22.699,10.328s-8.964,15.064-8.964,24.557s2.982,17.671,8.964,24.556s13.548,10.328,22.699,10.328
			c2.966,0,5.828-0.393,8.606-1.176c2.761-0.785,5.096-1.756,6.986-2.914c1.892-1.16,3.597-2.283,5.079-3.408
			c1.482-1.107,2.59-2.08,3.34-2.914l0.988-1.107l7.056,7.174c-0.324,0.408-0.802,0.92-1.415,1.551
			c-0.613,0.613-1.96,1.756-4.021,3.408c-2.063,1.652-4.243,3.102-6.561,4.328c-2.318,1.244-5.283,2.369-8.913,3.408
			c-3.63,1.023-7.345,1.551-11.128,1.551c-12.373,0-22.598-4.311-30.675-12.934c-8.078-8.623-12.117-19.24-12.117-31.851
			c0-12.611,4.039-23.244,12.117-31.851c8.077-8.624,18.302-12.935,30.675-12.935c6.016,0,11.604,1.107,16.769,3.34
			c5.146,2.232,8.811,4.414,10.94,6.561L587.25,175.516L587.25,175.516z"/>
		<polygon fill="#FFFFFF" points="463.909,173.658 463.909,200.993 500.531,200.993 500.531,210.894 463.909,210.894 
			463.909,240.461 504.247,240.461 504.247,250.361 453.531,250.361 453.531,163.757 503.514,163.757 503.514,173.658 
			463.927,173.658 		"/>
		<path fill="#FFFFFF" d="M426.525,227.355v-63.582h10.396v63.463c0,7.344-2.283,13.275-6.868,17.809
			c-4.584,4.533-10.787,6.799-18.626,6.799c-2.642,0-5.231-0.426-7.788-1.295s-4.687-1.891-6.374-3.084
			c-1.687-1.193-3.203-2.42-4.516-3.646c-1.313-1.244-2.267-2.268-2.846-3.102l-0.988-1.363l7.549-6.563
			c0.409,0.666,0.988,1.5,1.738,2.539c0.75,1.023,2.42,2.387,5.011,4.09c2.59,1.688,5.334,2.541,8.23,2.541
			c5.283,0,9.117-1.449,11.503-4.33c2.387-2.879,3.596-6.305,3.596-10.275H426.525z"/>
		<path fill="#FFFFFF" d="M375.271,175.209c-8.078-8.623-18.303-12.935-30.675-12.935s-22.598,4.312-30.675,12.935
			c-8.078,8.606-12.117,19.239-12.117,31.851c0,12.61,4.039,23.228,12.117,31.851c8.077,8.623,18.303,12.934,30.675,12.934
			s22.597-4.311,30.675-12.934c8.077-8.607,12.116-19.24,12.116-31.851C387.388,194.448,383.349,183.832,375.271,175.209z
			 M367.381,231.615c-5.947,6.885-13.531,10.328-22.768,10.328s-16.837-3.443-22.768-10.328c-5.947-6.885-8.912-15.063-8.912-24.556
			s2.981-17.672,8.912-24.557c5.947-6.885,13.531-10.328,22.768-10.328s16.837,3.443,22.768,10.328
			c5.947,6.885,8.913,15.064,8.913,24.557S373.312,224.73,367.381,231.615z"/>
		<path fill="#FFFFFF" d="M271.269,213.365c1.244-0.341,2.999-1.074,5.266-2.232c2.267-1.143,4.261-2.573,5.999-4.261
			c1.721-1.688,3.271-4.056,4.635-7.106c1.363-3.05,2.045-6.526,2.045-10.396c0-7.668-2.658-13.854-7.975-18.559
			c-5.317-4.703-12.304-7.055-20.961-7.055h-22.513v86.604h10.361v-35.377h8.044l23.381,35.377h12.492l-23.995-36.247
			C268.951,213.944,270.024,213.688,271.269,213.365z M248.16,205.083v-31.425h12.747c5.692,0,10.105,1.397,13.241,4.209
			c3.136,2.795,4.704,6.646,4.704,11.503c0,4.857-1.568,8.691-4.704,11.504c-3.136,2.812-7.549,4.209-13.241,4.209H248.16z"/>
		<path fill="#FFFFFF" d="M216.7,170.624c-5.266-4.584-12.491-6.867-21.643-6.867h-22.393v86.604h10.396v-34.389h11.997
			c9.151,0,16.359-2.284,21.643-6.868s7.925-10.992,7.925-19.24S221.983,175.209,216.7,170.624z M208.912,201.981
			c-3.545,2.727-8.367,4.09-14.468,4.09h-11.384v-32.413h11.384c6.101,0,10.923,1.363,14.468,4.09
			c3.545,2.71,5.317,6.766,5.317,12.116C214.229,195.216,212.457,199.255,208.912,201.981z"/>
	</g>
	<g>
		<polygon fill="#FFFFFF" points="1166.922,200.993 1166.922,163.757 1177.318,163.757 1177.318,250.361 1166.922,250.361 
			1166.922,210.894 1123.5,210.894 1123.5,250.361 1113.105,250.361 1113.105,163.757 1123.5,163.757 1123.5,200.993 		"/>
		<path fill="#FFFFFF" d="M1085.89,228.326c0-2.146-0.375-4.039-1.107-5.691c-0.75-1.652-2.028-3.17-3.835-4.584
			c-1.807-1.396-3.477-2.521-5.01-3.34c-1.533-0.817-3.817-1.942-6.868-3.34c-3.05-1.397-5.521-2.591-7.43-3.596
			c-1.892-0.988-4.005-2.317-6.306-3.954c-2.317-1.652-4.106-3.271-5.385-4.891c-1.278-1.602-2.369-3.613-3.271-5.999
			c-0.903-2.386-1.363-5.026-1.363-7.924c0-5.692,2.249-10.907,6.748-15.644c4.498-4.738,10.582-7.107,18.252-7.107
			c3.05,0,5.981,0.426,8.775,1.295c2.813,0.869,5.13,1.926,6.987,3.153c1.858,1.244,3.477,2.471,4.892,3.715
			c1.396,1.244,2.437,2.301,3.084,3.222l0.869,1.243l-7.788,6.306c-0.17-0.256-0.409-0.58-0.75-0.988
			c-0.323-0.409-1.022-1.143-2.096-2.164c-1.073-1.023-2.198-1.943-3.408-2.727c-1.192-0.784-2.761-1.5-4.704-2.165
			c-1.942-0.665-3.902-0.988-5.879-0.988c-4.447,0-7.992,1.296-10.634,3.902c-2.642,2.591-3.954,5.59-3.954,8.964
			c0,2.147,0.393,4.021,1.176,5.624c0.784,1.602,2.182,3.136,4.209,4.585c2.028,1.447,3.92,2.623,5.692,3.527
			c1.772,0.902,4.517,2.232,8.231,3.953c3.715,1.738,6.714,3.306,9.031,4.703c2.301,1.398,4.5,3.085,6.562,5.079
			c2.062,1.977,3.562,4.26,4.517,6.867c0.954,2.59,1.414,5.59,1.414,8.963c0,6.938-2.539,12.578-7.601,16.957
			c-5.078,4.363-11.485,6.561-19.24,6.561c-3.8,0-7.362-0.613-10.702-1.857s-5.998-2.744-7.975-4.516
			c-1.978-1.771-3.664-3.545-5.079-5.316c-1.397-1.773-2.386-3.273-2.965-4.516l-0.869-1.859l8.657-5.197
			c0.17,0.324,0.392,0.801,0.682,1.432c0.289,0.613,0.971,1.688,2.045,3.221c1.073,1.535,2.267,2.881,3.596,4.09
			c1.313,1.193,3.118,2.268,5.385,3.221c2.267,0.955,4.687,1.416,7.243,1.416c4.448,0,8.265-1.211,11.435-3.648
			c3.17-2.436,4.755-5.76,4.755-9.951L1085.89,228.326z"/>
		<rect x="1016.485" y="163.739" fill="#FFFFFF" width="10.396" height="86.604"/>
		<polygon fill="#FFFFFF" points="954.386,250.344 954.386,163.739 964.781,163.739 964.781,240.443 1003.619,240.443 
			1003.619,250.344 954.386,250.344 		"/>
		<path fill="#FFFFFF" d="M905.392,212.734v-9.901h31.919v37.61c-0.324,0.324-0.784,0.75-1.364,1.244
			c-0.579,0.494-1.942,1.396-4.09,2.727c-2.146,1.313-4.431,2.471-6.867,3.459c-2.438,0.988-5.606,1.893-9.526,2.727
			c-3.919,0.818-7.976,1.244-12.185,1.244c-12.372,0-22.631-4.311-30.812-12.934c-8.163-8.623-12.253-19.24-12.253-31.851
			c0-12.611,4.09-23.244,12.253-31.851c8.163-8.624,18.439-12.935,30.812-12.935c4.209,0,8.163,0.408,11.878,1.244
			c3.715,0.817,6.714,1.857,9.032,3.102c2.317,1.244,4.312,2.453,5.998,3.646c1.688,1.193,2.914,2.198,3.647,3.033l1.107,1.244
			l-7.43,7.294c-0.256-0.256-0.58-0.597-0.989-1.057c-0.408-0.46-1.38-1.244-2.913-2.352c-1.534-1.108-3.153-2.079-4.892-2.914
			c-1.738-0.818-4.005-1.585-6.799-2.284c-2.813-0.698-5.692-1.057-8.657-1.057c-9.151,0-16.77,3.443-22.819,10.328
			c-6.066,6.885-9.1,15.064-9.1,24.557s3.033,17.671,9.1,24.556s13.668,10.328,22.819,10.328c4.703,0,9.031-0.512,12.985-1.551
			c3.953-1.023,6.714-2.08,8.281-3.152l2.473-1.602v-22.888h-21.644L905.392,212.734z"/>
		<polygon fill="#FFFFFF" points="777.853,163.739 788.622,163.739 835.01,233.014 835.01,163.739 845.405,163.739 845.405,250.344 
			834.635,250.344 788.247,181.071 788.247,250.344 777.853,250.344 		"/>
		<polygon fill="#FFFFFF" points="720.95,173.642 720.95,200.976 757.572,200.976 757.572,210.877 720.95,210.877 720.95,240.443 
			761.288,240.443 761.288,250.344 710.571,250.344 710.571,163.739 760.555,163.739 760.555,173.642 720.967,173.642 		"/>
	</g>
	<g>
		<polygon fill="#FFFFFF" points="920.115,311.348 920.115,345.039 895.83,311.348 890.207,311.348 890.207,353.457 
			895.643,353.457 895.643,319.766 919.928,353.457 925.551,353.457 925.551,311.348 		"/>
		<path fill="#FFFFFF" d="M860.026,310.615c-6.476,0-11.827,2.096-16.054,6.289c-4.227,4.191-6.339,9.355-6.339,15.49
			s2.112,11.299,6.339,15.49c4.227,4.193,9.578,6.289,16.054,6.289s11.827-2.096,16.054-6.289c4.226-4.191,6.339-9.355,6.339-15.49
			s-2.113-11.299-6.339-15.49C871.854,312.711,866.502,310.615,860.026,310.615z M871.938,344.34
			c-3.101,3.357-7.071,5.027-11.911,5.027c-4.841,0-8.811-1.688-11.912-5.027c-3.118-3.357-4.67-7.326-4.67-11.945
			s1.568-8.59,4.67-11.947c3.102-3.355,7.071-5.025,11.912-5.025c4.84,0,8.811,1.67,11.911,5.025
			c3.119,3.357,4.67,7.328,4.67,11.947S875.04,341,871.938,344.34z"/>
		<rect x="823.523" y="311.348" fill="#FFFFFF" width="5.436" height="42.109"/>
		<polygon fill="#FFFFFF" points="784.924,316.154 797.943,316.154 797.943,353.457 803.363,353.457 803.363,316.154 
			816.383,316.154 816.383,311.348 784.924,311.348 		"/>
		<path fill="#FFFFFF" d="M763.06,311.348l-17.809,42.109h0.018h5.828l4.72-11.365h19.547l4.721,11.365h5.692l-17.673-42.109H763.06
			z M757.811,337.285l7.771-18.711l7.771,18.711H757.811z"/>
		<path fill="#FFFFFF" d="M737.004,344.307c-0.393,0.408-0.972,0.869-1.756,1.414c-0.783,0.545-1.67,1.092-2.658,1.652
			c-1.005,0.563-2.215,1.041-3.664,1.416c-1.448,0.391-2.947,0.578-4.499,0.578c-4.788,0-8.742-1.688-11.878-5.027
			c-3.118-3.357-4.686-7.328-4.686-11.945c0-4.619,1.55-8.59,4.686-11.947c3.136-3.355,7.09-5.025,11.878-5.025
			c1.552,0,3.051,0.186,4.499,0.545c1.449,0.357,2.607,0.75,3.494,1.176c0.886,0.408,1.704,0.92,2.487,1.5
			c0.767,0.596,1.278,0.988,1.483,1.209c0.204,0.223,0.375,0.393,0.511,0.512l3.749-3.307l0.052-0.018l-1.755-1.617
			c-1.125-1.041-3.034-2.098-5.727-3.188c-2.71-1.074-5.624-1.619-8.776-1.619c-6.476,0-11.827,2.096-16.054,6.289
			c-4.227,4.191-6.339,9.355-6.339,15.49s2.112,11.299,6.339,15.49c4.227,4.193,9.578,6.289,16.054,6.289
			c1.993,0,3.937-0.256,5.828-0.75c1.908-0.494,3.46-1.057,4.669-1.652c1.211-0.615,2.352-1.313,3.426-2.113
			s1.772-1.348,2.096-1.654c0.324-0.307,0.58-0.545,0.75-0.75l-3.697-3.492L737.004,344.307z"/>
		<path fill="#FFFFFF" d="M690.209,337.387h0.034c0,3.613-0.92,6.512-2.727,8.691c-1.807,2.182-4.602,3.273-8.351,3.273
			s-6.544-1.092-8.351-3.273c-1.823-2.18-2.727-5.078-2.727-8.691V311.33h-5.435v26.586c0,4.857,1.481,8.775,4.43,11.758
			s6.986,4.482,12.065,4.482c5.078,0,9.117-1.5,12.065-4.482s4.431-6.9,4.431-11.758V311.33h-5.437V337.387z"/>
		<path fill="#FFFFFF" d="M633.308,311.33v-0.016h-13.02v42.109h13.02c6.902,0,12.355-1.959,16.377-5.863
			c4.005-3.902,6.016-8.98,6.016-15.184s-1.993-11.281-6.016-15.184C645.68,313.291,640.21,311.33,633.308,311.33z M645.441,344.033
			c-2.948,3.068-7.106,4.602-12.457,4.602h-7.243v-32.48h7.243c5.351,0,9.509,1.533,12.457,4.602
			c2.948,3.066,4.431,6.951,4.431,11.639C649.872,337.08,648.406,340.967,645.441,344.033z"/>
		<polygon fill="#FFFFFF" points="590.517,334.234 609.672,334.234 609.672,329.43 590.517,329.43 590.517,316.137 590.499,316.119 
			611.222,316.119 611.222,311.314 585.063,311.314 585.063,353.424 611.614,353.424 611.614,348.617 590.517,348.617 		"/>
		<polygon fill="#FFFFFF" points="555.615,311.33 544.027,340.506 533.019,311.33 529.064,311.33 517.937,340.506 506.484,311.33 
			500.4,311.33 517.816,354.65 530.888,321.504 543.908,354.65 561.393,311.33 561.375,311.33 		"/>
		<polygon fill="#FFFFFF" points="474.538,334.234 493.693,334.234 493.693,329.43 474.538,329.43 474.538,316.137 474.521,316.119 
			495.244,316.119 495.244,311.314 469.085,311.314 469.085,353.424 495.636,353.424 495.636,348.617 474.538,348.617 		"/>
		<polygon fill="#FFFFFF" points="454.201,345.021 429.917,311.33 424.293,311.33 424.293,353.441 429.729,353.441 429.729,319.75 
			454.014,353.441 459.637,353.441 459.637,311.33 454.201,311.33 		"/>
	</g>
	<polygon fill="#FFFFFF" points="94.904,77.349 1263.702,77.349 1263.702,336.682 964.41,336.682 964.41,328.076 1255.079,328.076 
		1255.079,85.955 94.904,85.955 94.904,328.076 385.418,328.076 385.418,336.682 86.298,336.682 86.298,77.349 	"/>
</g>
</svg>
